<svg width="56" height="42" viewBox="0 0 56 42" fill="none" xmlns="http://www.w3.org/2000/svg">
<path d="M13.7272 31.365C17.1966 30.9854 20.6034 30.1642 23.8651 28.9215C26.7786 27.8603 29.6205 26.6116 32.3729 25.1832C33.9939 24.3163 35.5987 23.4494 37.1873 22.5825C38.3969 21.9052 39.7111 21.4345 41.0756 21.1901C42.675 21.042 43.5415 21.6976 43.6751 23.1568C43.769 24.1537 43.3971 25.4179 42.5595 26.9494C42.3591 27.3449 41.7309 28.3364 40.6695 29.9347C40.0846 30.7655 39.4835 31.5836 38.8661 32.389C38.1923 33.2766 37.6286 34.2426 37.1873 35.266C36.5446 36.7324 36.1836 37.4711 36.1042 37.4819C36.0904 37.4729 36.0789 37.461 36.0705 37.4469C36.062 37.4328 36.0569 37.417 36.0554 37.4007C36.1002 36.7041 36.209 36.0131 36.3804 35.3364C36.7161 33.6352 37.7288 31.6468 39.4185 29.3766C40.9565 27.2799 41.7038 26.0284 41.6659 25.6328C41.6659 25.3457 41.3735 25.2265 40.8536 25.2698C40.0593 25.3457 38.5863 25.9128 36.4345 26.9711C31.6147 29.3767 28.7066 30.7962 27.7101 31.2296C21.6194 33.8374 16.5162 35.3274 12.4004 35.6994C8.03546 36.1003 4.78614 35.2461 2.65242 33.1367C1.11188 31.5468 0.19821 29.4531 0.080042 27.242C-0.187985 24.6934 0.203646 22.1187 1.2173 19.7652C1.57473 18.985 1.82926 18.5895 1.97006 18.5732C2.01139 18.6191 2.03281 18.6795 2.02963 18.7412C2.02964 19.1722 1.96763 19.601 1.84551 20.0144C1.60181 20.8488 1.3906 21.6669 1.16315 22.4742C0.914217 23.57 0.842906 24.6986 0.951943 25.8171C1.08733 27.3016 1.94299 28.5802 3.50808 29.6421C5.80787 31.2061 9.21424 31.7804 13.7272 31.365Z" fill="white"/>
<path d="M44.9428 3.28328C44.8814 3.22549 44.8814 3.1388 44.9428 3.02322L46.34 0.260062C46.4212 0.0866871 46.5133 0 46.5999 0C47.2448 0.282815 47.8508 0.646965 48.4033 1.08359C49.4864 1.81502 49.9955 2.24845 49.9955 2.39474C49.9955 2.85526 49.5189 3.8305 48.5766 5.32043C48.4629 5.5209 48.3437 5.57508 48.23 5.49381C47.1807 4.69008 46.0829 3.95184 44.9428 3.28328Z" fill="white"/>
<path d="M9.96265 18.7192C9.90308 18.665 9.90308 18.5783 9.96265 18.4645L11.3382 15.7122C11.4248 15.5388 11.5115 15.4521 11.5981 15.4521C12.2432 15.7345 12.8493 16.0987 13.4015 16.5357C14.463 17.2581 14.9937 17.697 14.9937 17.8523C14.9937 18.3074 14.5207 19.2826 13.5748 20.778C13.4611 20.9785 13.3419 21.0326 13.2282 20.946C12.1837 20.141 11.0934 19.3975 9.96265 18.7192Z" fill="white"/>
<path d="M55.2971 20.9733C54.965 23.5884 53.8819 25.5912 52.0478 26.9819C49.0043 29.3712 44.2927 30.4493 40.4531 29.9617L42.2457 25.6545C44.2248 25.8492 46.2227 25.7063 48.154 25.2319C50.1588 24.852 52.0679 24.0766 53.7699 22.9509C53.8602 22.2285 53.4251 21.5657 52.4648 20.9625C51.6211 20.3968 50.6566 20.0368 49.6487 19.9114L46.9409 19.5701C46.484 19.5335 46.0406 19.3972 45.642 19.1707C45.2434 18.9441 44.8993 18.6329 44.6339 18.2589C44.1143 17.4582 43.9205 16.489 44.0924 15.55C44.33 14.0029 45.0326 12.5648 46.1069 11.4269C47.2695 10.0977 48.3779 9.49991 49.4321 9.63355C51.1434 9.85027 52.6146 11.0205 53.8457 13.1444C55.2035 15.5137 55.7154 18.2745 55.2971 20.9733ZM51.425 16.276C50.5964 14.6127 49.5512 13.697 48.3057 13.5399C47.4229 13.4261 46.9409 13.6699 46.8651 14.2713C46.7893 14.8727 47.2875 15.3928 48.3815 15.6746C49.0386 15.754 50.0531 15.9545 51.425 16.276Z" fill="white"/>
<path d="M4.46655 41.9994C5.66591 41.9994 6.63818 41.08 6.63818 39.946C6.63818 38.8119 5.66591 37.8926 4.46655 37.8926C3.26719 37.8926 2.29492 38.8119 2.29492 39.946C2.29492 41.08 3.26719 41.9994 4.46655 41.9994Z" fill="white"/>
<path d="M13.5056 41.9994C14.705 41.9994 15.6772 41.08 15.6772 39.946C15.6772 38.8119 14.705 37.8926 13.5056 37.8926C12.3063 37.8926 11.334 38.8119 11.334 39.946C11.334 41.08 12.3063 41.9994 13.5056 41.9994Z" fill="white"/>
</svg>
